<mxfile host="app.diagrams.net" modified="2023-02-23T11:40:50.750Z" agent="5.0 (Macintosh; Intel Mac OS X 10_15_7) AppleWebKit/537.36 (KHTML, like Gecko) Chrome/108.0.0.0 Safari/537.36" version="20.7.4" etag="wdrnPVAKu00Y7kfiHzQf" type="github">
  <diagram id="csO9OgjaxNzDDv-BIICV" name="Страница 1">
    <mxGraphModel dx="2120" dy="2609" grid="1" gridSize="10" guides="1" tooltips="1" connect="1" arrows="1" fold="1" page="1" pageScale="1" pageWidth="827" pageHeight="1169" math="0" shadow="0">
      <root>
        <mxCell id="0" />
        <mxCell id="1" parent="0" />
        <mxCell id="_6TrbKtkGLFvHV3Oh21O-1" value="&lt;font style=&quot;font-size: 40px;&quot;&gt;A&lt;/font&gt;" style="ellipse;whiteSpace=wrap;html=1;aspect=fixed;" vertex="1" parent="1">
          <mxGeometry x="120" y="80" width="80" height="80" as="geometry" />
        </mxCell>
        <mxCell id="_6TrbKtkGLFvHV3Oh21O-2" value="&lt;span style=&quot;font-size: 40px;&quot;&gt;B&lt;/span&gt;" style="ellipse;whiteSpace=wrap;html=1;aspect=fixed;" vertex="1" parent="1">
          <mxGeometry x="240" y="80" width="80" height="80" as="geometry" />
        </mxCell>
        <mxCell id="_6TrbKtkGLFvHV3Oh21O-3" value="&lt;font style=&quot;font-size: 40px;&quot;&gt;C&lt;/font&gt;" style="ellipse;whiteSpace=wrap;html=1;aspect=fixed;" vertex="1" parent="1">
          <mxGeometry x="360" y="80" width="80" height="80" as="geometry" />
        </mxCell>
        <mxCell id="_6TrbKtkGLFvHV3Oh21O-4" value="&lt;font style=&quot;font-size: 40px;&quot;&gt;D&lt;/font&gt;" style="ellipse;whiteSpace=wrap;html=1;aspect=fixed;" vertex="1" parent="1">
          <mxGeometry x="480" y="80" width="80" height="80" as="geometry" />
        </mxCell>
        <mxCell id="_6TrbKtkGLFvHV3Oh21O-5" value="&lt;font style=&quot;font-size: 40px;&quot;&gt;E&lt;/font&gt;" style="ellipse;whiteSpace=wrap;html=1;aspect=fixed;" vertex="1" parent="1">
          <mxGeometry x="600" y="80" width="80" height="80" as="geometry" />
        </mxCell>
        <mxCell id="_6TrbKtkGLFvHV3Oh21O-6" value="&lt;font style=&quot;font-size: 40px;&quot;&gt;F&lt;/font&gt;" style="ellipse;whiteSpace=wrap;html=1;aspect=fixed;" vertex="1" parent="1">
          <mxGeometry x="720" y="80" width="80" height="80" as="geometry" />
        </mxCell>
        <mxCell id="_6TrbKtkGLFvHV3Oh21O-7" value="&lt;font style=&quot;font-size: 40px;&quot;&gt;G&lt;/font&gt;" style="ellipse;whiteSpace=wrap;html=1;aspect=fixed;" vertex="1" parent="1">
          <mxGeometry x="120" y="200" width="80" height="80" as="geometry" />
        </mxCell>
        <mxCell id="_6TrbKtkGLFvHV3Oh21O-8" value="&lt;span style=&quot;font-size: 40px;&quot;&gt;H&lt;br&gt;&lt;/span&gt;" style="ellipse;whiteSpace=wrap;html=1;aspect=fixed;" vertex="1" parent="1">
          <mxGeometry x="240" y="200" width="80" height="80" as="geometry" />
        </mxCell>
        <mxCell id="_6TrbKtkGLFvHV3Oh21O-9" value="&lt;span style=&quot;font-size: 40px;&quot;&gt;I&lt;br&gt;&lt;/span&gt;" style="ellipse;whiteSpace=wrap;html=1;aspect=fixed;" vertex="1" parent="1">
          <mxGeometry x="360" y="200" width="80" height="80" as="geometry" />
        </mxCell>
        <mxCell id="_6TrbKtkGLFvHV3Oh21O-10" value="&lt;span style=&quot;font-size: 40px;&quot;&gt;J&lt;br&gt;&lt;/span&gt;" style="ellipse;whiteSpace=wrap;html=1;aspect=fixed;" vertex="1" parent="1">
          <mxGeometry x="480" y="200" width="80" height="80" as="geometry" />
        </mxCell>
        <mxCell id="_6TrbKtkGLFvHV3Oh21O-11" value="&lt;span style=&quot;font-size: 40px;&quot;&gt;K&lt;br&gt;&lt;/span&gt;" style="ellipse;whiteSpace=wrap;html=1;aspect=fixed;" vertex="1" parent="1">
          <mxGeometry x="600" y="200" width="80" height="80" as="geometry" />
        </mxCell>
        <mxCell id="_6TrbKtkGLFvHV3Oh21O-12" value="&lt;span style=&quot;font-size: 40px;&quot;&gt;L&lt;br&gt;&lt;/span&gt;" style="ellipse;whiteSpace=wrap;html=1;aspect=fixed;" vertex="1" parent="1">
          <mxGeometry x="720" y="200" width="80" height="80" as="geometry" />
        </mxCell>
        <mxCell id="_6TrbKtkGLFvHV3Oh21O-13" value="&lt;span style=&quot;font-size: 40px;&quot;&gt;M&lt;br&gt;&lt;/span&gt;" style="ellipse;whiteSpace=wrap;html=1;aspect=fixed;" vertex="1" parent="1">
          <mxGeometry x="120" y="320" width="80" height="80" as="geometry" />
        </mxCell>
        <mxCell id="_6TrbKtkGLFvHV3Oh21O-14" value="&lt;span style=&quot;font-size: 40px;&quot;&gt;N&lt;br&gt;&lt;/span&gt;" style="ellipse;whiteSpace=wrap;html=1;aspect=fixed;" vertex="1" parent="1">
          <mxGeometry x="240" y="320" width="80" height="80" as="geometry" />
        </mxCell>
        <mxCell id="_6TrbKtkGLFvHV3Oh21O-15" value="&lt;span style=&quot;font-size: 40px;&quot;&gt;O&lt;br&gt;&lt;/span&gt;" style="ellipse;whiteSpace=wrap;html=1;aspect=fixed;" vertex="1" parent="1">
          <mxGeometry x="360" y="320" width="80" height="80" as="geometry" />
        </mxCell>
        <mxCell id="_6TrbKtkGLFvHV3Oh21O-16" value="&lt;span style=&quot;font-size: 40px;&quot;&gt;P&lt;br&gt;&lt;/span&gt;" style="ellipse;whiteSpace=wrap;html=1;aspect=fixed;" vertex="1" parent="1">
          <mxGeometry x="480" y="320" width="80" height="80" as="geometry" />
        </mxCell>
        <mxCell id="_6TrbKtkGLFvHV3Oh21O-17" value="&lt;span style=&quot;font-size: 40px;&quot;&gt;Q&lt;br&gt;&lt;/span&gt;" style="ellipse;whiteSpace=wrap;html=1;aspect=fixed;" vertex="1" parent="1">
          <mxGeometry x="600" y="320" width="80" height="80" as="geometry" />
        </mxCell>
        <mxCell id="_6TrbKtkGLFvHV3Oh21O-18" value="&lt;span style=&quot;font-size: 40px;&quot;&gt;R&lt;br&gt;&lt;/span&gt;" style="ellipse;whiteSpace=wrap;html=1;aspect=fixed;" vertex="1" parent="1">
          <mxGeometry x="720" y="320" width="80" height="80" as="geometry" />
        </mxCell>
        <mxCell id="_6TrbKtkGLFvHV3Oh21O-19" value="&lt;span style=&quot;font-size: 40px;&quot;&gt;S&lt;br&gt;&lt;/span&gt;" style="ellipse;whiteSpace=wrap;html=1;aspect=fixed;" vertex="1" parent="1">
          <mxGeometry x="120" y="440" width="80" height="80" as="geometry" />
        </mxCell>
        <mxCell id="_6TrbKtkGLFvHV3Oh21O-20" value="&lt;span style=&quot;font-size: 40px;&quot;&gt;T&lt;br&gt;&lt;/span&gt;" style="ellipse;whiteSpace=wrap;html=1;aspect=fixed;" vertex="1" parent="1">
          <mxGeometry x="240" y="440" width="80" height="80" as="geometry" />
        </mxCell>
        <mxCell id="_6TrbKtkGLFvHV3Oh21O-21" value="&lt;span style=&quot;font-size: 40px;&quot;&gt;U&lt;br&gt;&lt;/span&gt;" style="ellipse;whiteSpace=wrap;html=1;aspect=fixed;" vertex="1" parent="1">
          <mxGeometry x="360" y="440" width="80" height="80" as="geometry" />
        </mxCell>
        <mxCell id="_6TrbKtkGLFvHV3Oh21O-22" value="&lt;span style=&quot;font-size: 40px;&quot;&gt;V&lt;br&gt;&lt;/span&gt;" style="ellipse;whiteSpace=wrap;html=1;aspect=fixed;" vertex="1" parent="1">
          <mxGeometry x="480" y="440" width="80" height="80" as="geometry" />
        </mxCell>
        <mxCell id="_6TrbKtkGLFvHV3Oh21O-23" value="&lt;span style=&quot;font-size: 40px;&quot;&gt;W&lt;br&gt;&lt;/span&gt;" style="ellipse;whiteSpace=wrap;html=1;aspect=fixed;" vertex="1" parent="1">
          <mxGeometry x="600" y="440" width="80" height="80" as="geometry" />
        </mxCell>
        <mxCell id="_6TrbKtkGLFvHV3Oh21O-24" value="&lt;span style=&quot;font-size: 40px;&quot;&gt;X&lt;br&gt;&lt;/span&gt;" style="ellipse;whiteSpace=wrap;html=1;aspect=fixed;" vertex="1" parent="1">
          <mxGeometry x="720" y="440" width="80" height="80" as="geometry" />
        </mxCell>
        <mxCell id="_6TrbKtkGLFvHV3Oh21O-25" value="&lt;span style=&quot;font-size: 40px;&quot;&gt;Y&lt;br&gt;&lt;/span&gt;" style="ellipse;whiteSpace=wrap;html=1;aspect=fixed;" vertex="1" parent="1">
          <mxGeometry x="120" y="560" width="80" height="80" as="geometry" />
        </mxCell>
        <mxCell id="_6TrbKtkGLFvHV3Oh21O-26" value="&lt;span style=&quot;font-size: 40px;&quot;&gt;Z&lt;br&gt;&lt;/span&gt;" style="ellipse;whiteSpace=wrap;html=1;aspect=fixed;" vertex="1" parent="1">
          <mxGeometry x="240" y="560" width="80" height="80" as="geometry" />
        </mxCell>
        <mxCell id="_6TrbKtkGLFvHV3Oh21O-27" value="&lt;font style=&quot;font-size: 40px;&quot;&gt;A&lt;/font&gt;" style="ellipse;whiteSpace=wrap;html=1;aspect=fixed;" vertex="1" parent="1">
          <mxGeometry x="1400" y="200" width="80" height="80" as="geometry" />
        </mxCell>
        <mxCell id="_6TrbKtkGLFvHV3Oh21O-28" value="&lt;span style=&quot;font-size: 40px;&quot;&gt;B&lt;/span&gt;" style="ellipse;whiteSpace=wrap;html=1;aspect=fixed;" vertex="1" parent="1">
          <mxGeometry x="1120" y="80" width="80" height="80" as="geometry" />
        </mxCell>
        <mxCell id="_6TrbKtkGLFvHV3Oh21O-29" value="&lt;font style=&quot;font-size: 40px;&quot;&gt;C&lt;/font&gt;" style="ellipse;whiteSpace=wrap;html=1;aspect=fixed;" vertex="1" parent="1">
          <mxGeometry x="1241" y="240" width="80" height="80" as="geometry" />
        </mxCell>
        <mxCell id="_6TrbKtkGLFvHV3Oh21O-30" value="&lt;font style=&quot;font-size: 40px;&quot;&gt;D&lt;/font&gt;" style="ellipse;whiteSpace=wrap;html=1;aspect=fixed;" vertex="1" parent="1">
          <mxGeometry x="1400" y="80" width="80" height="80" as="geometry" />
        </mxCell>
        <mxCell id="_6TrbKtkGLFvHV3Oh21O-31" value="&lt;font style=&quot;font-size: 40px;&quot;&gt;E&lt;/font&gt;" style="ellipse;whiteSpace=wrap;html=1;aspect=fixed;" vertex="1" parent="1">
          <mxGeometry x="1320" y="-80" width="80" height="80" as="geometry" />
        </mxCell>
        <mxCell id="_6TrbKtkGLFvHV3Oh21O-32" value="&lt;font style=&quot;font-size: 40px;&quot;&gt;F&lt;/font&gt;" style="ellipse;whiteSpace=wrap;html=1;aspect=fixed;" vertex="1" parent="1">
          <mxGeometry x="1560" y="-40" width="80" height="80" as="geometry" />
        </mxCell>
        <mxCell id="_6TrbKtkGLFvHV3Oh21O-33" value="&lt;font style=&quot;font-size: 40px;&quot;&gt;G&lt;/font&gt;" style="ellipse;whiteSpace=wrap;html=1;aspect=fixed;" vertex="1" parent="1">
          <mxGeometry x="1600" y="-200" width="80" height="80" as="geometry" />
        </mxCell>
        <mxCell id="_6TrbKtkGLFvHV3Oh21O-34" value="&lt;span style=&quot;font-size: 40px;&quot;&gt;H&lt;br&gt;&lt;/span&gt;" style="ellipse;whiteSpace=wrap;html=1;aspect=fixed;" vertex="1" parent="1">
          <mxGeometry x="1600" y="120" width="80" height="80" as="geometry" />
        </mxCell>
        <mxCell id="_6TrbKtkGLFvHV3Oh21O-35" value="&lt;span style=&quot;font-size: 40px;&quot;&gt;I&lt;br&gt;&lt;/span&gt;" style="ellipse;whiteSpace=wrap;html=1;aspect=fixed;" vertex="1" parent="1">
          <mxGeometry x="1760" y="240" width="80" height="80" as="geometry" />
        </mxCell>
        <mxCell id="_6TrbKtkGLFvHV3Oh21O-36" value="&lt;span style=&quot;font-size: 40px;&quot;&gt;J&lt;br&gt;&lt;/span&gt;" style="ellipse;whiteSpace=wrap;html=1;aspect=fixed;" vertex="1" parent="1">
          <mxGeometry x="1560" y="280" width="80" height="80" as="geometry" />
        </mxCell>
        <mxCell id="_6TrbKtkGLFvHV3Oh21O-37" value="&lt;span style=&quot;font-size: 40px;&quot;&gt;K&lt;br&gt;&lt;/span&gt;" style="ellipse;whiteSpace=wrap;html=1;aspect=fixed;" vertex="1" parent="1">
          <mxGeometry x="1040" y="320" width="80" height="80" as="geometry" />
        </mxCell>
        <mxCell id="_6TrbKtkGLFvHV3Oh21O-38" value="&lt;span style=&quot;font-size: 40px;&quot;&gt;L&lt;br&gt;&lt;/span&gt;" style="ellipse;whiteSpace=wrap;html=1;aspect=fixed;" vertex="1" parent="1">
          <mxGeometry x="1360" y="400" width="80" height="80" as="geometry" />
        </mxCell>
        <mxCell id="_6TrbKtkGLFvHV3Oh21O-39" value="&lt;span style=&quot;font-size: 40px;&quot;&gt;N&lt;br&gt;&lt;/span&gt;" style="ellipse;whiteSpace=wrap;html=1;aspect=fixed;" vertex="1" parent="1">
          <mxGeometry x="1560" y="480" width="80" height="80" as="geometry" />
        </mxCell>
        <mxCell id="_6TrbKtkGLFvHV3Oh21O-40" value="&lt;span style=&quot;font-size: 40px;&quot;&gt;O&lt;br&gt;&lt;/span&gt;" style="ellipse;whiteSpace=wrap;html=1;aspect=fixed;" vertex="1" parent="1">
          <mxGeometry x="1161" y="480" width="80" height="80" as="geometry" />
        </mxCell>
      </root>
    </mxGraphModel>
  </diagram>
</mxfile>
